<?xml version="1.0" standalone="no"?>
<!DOCTYPE svg PUBLIC "-//W3C//DTD SVG 20010904//EN"
 "http://www.w3.org/TR/2001/REC-SVG-20010904/DTD/svg10.dtd">
<svg version="1.0" xmlns="http://www.w3.org/2000/svg"
 width="998.000000pt" height="998.000000pt" viewBox="0 0 998.000000 998.000000"
 preserveAspectRatio="xMidYMid meet">
<metadata>
Created by potrace 1.11, written by Peter Selinger 2001-2013
</metadata>
<g transform="translate(0.000000,998.000000) scale(0.100000,-0.100000)"
fill="#000000" stroke="none">
<path d="M6408 9967 c-15 -15 -11 -28 44 -159 33 -79 65 -156 73 -173 50 -113
49 -110 59 -147 5 -16 12 -28 17 -28 5 0 8 -3 8 -7 -1 -5 0 -10 1 -13 1 -3 3
-12 5 -20 3 -14 66 -161 100 -237 8 -17 15 -38 15 -47 0 -9 4 -16 9 -16 5 0
12 -7 15 -16 3 -8 2 -13 -3 -10 -4 3 2 -14 13 -37 12 -23 28 -60 36 -82 8 -22
23 -55 33 -74 9 -20 17 -39 17 -43 0 -4 12 -33 26 -65 48 -107 65 -148 70
-172 1 -8 9 -18 16 -22 7 -5 9 -9 4 -9 -4 0 -1 -11 8 -25 9 -14 14 -25 12 -25
-3 0 8 -29 24 -65 16 -36 25 -65 20 -65 -8 0 -60 30 -135 78 -11 6 -27 15 -35
19 -8 3 -30 17 -47 30 -18 13 -33 21 -33 18 0 -3 -20 8 -44 25 -25 16 -48 30
-51 30 -4 0 -27 14 -52 30 -24 17 -63 40 -86 52 -23 11 -44 23 -47 27 -3 3
-15 11 -27 18 -17 10 -25 9 -41 -6 -20 -17 -20 -18 29 -84 27 -37 49 -71 49
-76 0 -5 3 -11 8 -13 11 -5 52 -66 52 -78 0 -5 5 -10 11 -10 5 0 7 -4 4 -10
-3 -5 -1 -10 5 -10 6 0 14 -8 17 -17 4 -10 13 -24 20 -31 7 -8 10 -18 7 -24
-4 -6 -2 -8 4 -4 6 3 13 -3 17 -14 4 -11 16 -30 28 -40 11 -11 17 -20 13 -20
-7 0 9 -22 37 -48 9 -9 17 -22 17 -29 0 -7 5 -13 10 -13 6 0 10 -7 10 -15 0
-8 3 -15 8 -15 4 0 12 -11 19 -25 11 -25 11 -25 -30 -20 -23 2 -73 7 -112 10
-124 11 -136 13 -142 19 -3 3 -12 1 -20 -5 -7 -6 -13 -7 -13 -3 0 5 -15 10
-32 10 -18 1 -62 4 -98 8 -36 4 -85 9 -110 11 -124 11 -161 14 -225 21 -38 3
-90 8 -115 10 -152 13 -267 24 -303 30 -22 3 -29 0 -36 -18 -7 -19 -3 -26 23
-43 17 -11 33 -20 36 -20 3 0 21 -10 40 -21 19 -12 96 -54 170 -94 74 -41 138
-78 141 -83 3 -5 9 -9 12 -9 20 0 47 -12 47 -21 0 -6 3 -7 7 -4 3 4 12 2 20
-5 15 -12 95 -57 158 -89 22 -11 63 -33 90 -48 28 -16 74 -41 103 -56 28 -14
52 -29 52 -33 0 -7 -181 -75 -230 -87 -8 -2 -16 -4 -17 -5 -2 -2 -6 -3 -10 -5
-5 -1 -16 -5 -25 -9 -9 -4 -22 -9 -30 -10 -7 -2 -24 -8 -38 -13 -29 -12 -260
-94 -275 -97 -5 -2 -23 -8 -38 -14 -15 -7 -40 -15 -54 -18 -15 -4 -38 -13 -52
-20 -14 -8 -30 -14 -34 -14 -5 0 -60 -18 -121 -40 l-113 -40 -50 24 c-89 44
-423 162 -482 172 -14 3 -37 9 -51 14 -14 5 -34 11 -45 13 -11 2 -31 7 -45 10
-126 31 -162 37 -170 32 -6 -3 -10 -2 -10 2 0 5 -12 10 -27 11 -27 3 -62 8
-113 17 -14 3 -47 7 -75 10 -27 3 -68 7 -90 10 -145 17 -493 24 -610 11 -33
-3 -87 -8 -120 -11 -62 -5 -119 -12 -164 -20 -14 -2 -51 -7 -81 -10 -30 -4
-58 -9 -63 -12 -5 -3 -26 -8 -46 -10 -20 -3 -63 -11 -96 -20 -33 -8 -67 -16
-75 -18 -93 -18 -354 -100 -377 -118 -7 -5 -13 -7 -13 -3 0 6 -63 -17 -137
-50 -21 -10 -40 -18 -43 -19 -24 -8 -77 -32 -140 -63 -41 -20 -81 -37 -89 -38
-8 -2 -17 -7 -20 -11 -3 -5 -35 -24 -71 -43 -36 -18 -100 -55 -143 -81 -43
-27 -83 -49 -88 -49 -5 0 -9 -4 -9 -10 0 -5 -5 -10 -10 -10 -6 0 -16 -5 -23
-10 -7 -6 -50 -37 -97 -70 -99 -69 -243 -182 -330 -261 -98 -87 -230 -219
-230 -229 0 -6 -7 -10 -15 -10 -8 0 -15 -3 -15 -7 0 -5 -15 -24 -33 -45 -32
-36 -86 -99 -127 -148 -12 -14 -32 -37 -46 -52 -13 -16 -21 -28 -17 -28 5 0 3
-4 -2 -8 -13 -9 -80 -99 -136 -182 -24 -36 -46 -67 -49 -70 -3 -3 -14 -21 -24
-40 -10 -19 -32 -54 -48 -78 -32 -49 -72 -125 -69 -131 2 -2 -1 -7 -6 -10 -24
-16 -223 -451 -223 -486 0 -8 -4 -15 -8 -15 -5 0 -9 -6 -9 -12 0 -7 -21 -75
-47 -151 -25 -77 -44 -143 -40 -148 3 -5 1 -9 -4 -9 -5 0 -9 -6 -10 -12 -1
-20 -13 -71 -17 -78 -2 -4 -7 -22 -10 -41 -9 -47 -13 -64 -15 -64 -1 0 -3 -11
-5 -25 -2 -14 -6 -36 -10 -50 -3 -14 -8 -34 -9 -45 -2 -11 -6 -33 -9 -50 -3
-16 -8 -48 -11 -70 -10 -79 -16 -121 -21 -144 -26 -136 -26 -741 0 -880 3 -19
17 -126 20 -161 1 -14 5 -36 9 -50 3 -14 8 -41 11 -60 4 -31 9 -53 30 -145 2
-11 7 -31 10 -45 10 -50 36 -155 42 -170 3 -8 7 -22 9 -30 2 -9 24 -76 49
-150 25 -74 47 -141 47 -147 1 -7 5 -13 10 -13 4 0 7 -3 6 -8 -2 -12 9 -40 81
-200 28 -62 51 -117 51 -122 0 -6 3 -10 8 -10 4 0 20 -28 37 -63 25 -54 128
-230 177 -306 10 -14 25 -39 34 -55 9 -16 27 -41 40 -55 13 -14 24 -29 24 -32
0 -5 25 -40 68 -94 4 -5 23 -30 42 -55 19 -24 40 -50 45 -56 6 -7 30 -35 55
-64 53 -62 217 -237 243 -259 10 -9 36 -32 56 -51 77 -72 121 -111 121 -106 0
3 15 -10 32 -27 18 -18 60 -53 93 -77 33 -25 62 -48 65 -51 3 -3 34 -25 70
-49 36 -24 66 -47 68 -52 2 -4 7 -8 12 -8 5 0 37 -19 71 -41 153 -102 574
-319 618 -319 5 0 22 -7 40 -16 17 -9 37 -17 44 -18 7 -2 19 -6 27 -9 30 -13
219 -76 242 -81 12 -3 48 -12 78 -21 30 -9 66 -18 80 -21 14 -3 45 -10 70 -16
25 -5 59 -12 75 -15 17 -3 35 -6 40 -8 46 -10 166 -29 260 -40 250 -30 708
-26 910 9 84 14 123 19 152 20 18 1 33 4 33 7 0 3 6 6 13 6 21 1 120 20 125
23 1 2 10 3 20 5 9 1 24 5 32 8 8 4 26 9 40 11 23 4 51 12 190 51 145 41 468
172 600 243 170 92 344 195 385 229 6 5 30 22 55 38 45 30 161 115 170 125 3
3 39 33 80 67 41 34 102 86 134 117 33 31 61 56 63 56 6 0 103 105 103 113 0
4 7 7 15 7 8 0 15 3 15 8 0 4 19 27 41 52 57 62 124 141 174 204 11 14 28 36
39 48 10 13 26 34 35 48 18 28 23 35 52 70 12 14 28 38 36 55 9 16 22 36 30
43 8 8 29 39 46 69 18 30 40 67 49 81 47 74 171 309 166 315 -2 2 5 14 14 28
9 14 29 55 44 90 15 35 34 80 42 99 9 19 17 40 18 45 1 6 14 42 29 80 23 61
73 211 80 240 1 6 5 17 8 25 4 8 9 26 11 40 3 14 11 50 19 80 36 136 77 351
91 475 3 28 8 73 11 100 11 103 17 225 16 375 -1 140 -6 285 -10 285 -1 0 -4
34 -6 75 -3 41 -7 89 -9 105 -17 130 -17 125 -42 265 -19 98 -22 115 -24 115
-3 0 -10 39 -13 67 -1 16 -5 28 -9 28 -4 0 -7 8 -7 18 0 17 -4 35 -14 62 -5
14 -17 65 -18 75 0 14 -103 304 -134 380 -5 11 -9 23 -9 27 -1 3 -4 9 -7 13
-4 3 -1 27 6 53 40 140 58 198 67 210 6 6 8 12 5 12 -4 0 0 18 8 41 8 23 12
45 9 50 -3 5 -1 9 4 9 6 0 13 17 18 38 8 41 8 41 17 62 3 8 15 49 27 90 12 41
25 82 28 90 3 8 6 20 7 25 1 6 12 42 24 80 12 39 24 77 26 85 2 8 18 60 36
115 27 88 40 133 54 185 2 8 4 16 5 18 2 1 4 7 5 12 1 6 4 12 5 15 1 3 4 10 5
15 1 6 3 11 5 13 1 1 3 9 5 17 7 34 84 283 89 288 8 7 8 7 48 -68 46 -85 86
-158 108 -195 10 -16 32 -57 50 -90 18 -33 41 -74 51 -92 10 -18 35 -63 55
-100 21 -37 47 -84 59 -103 11 -19 34 -61 50 -92 17 -32 34 -58 38 -58 5 0 5
-4 2 -10 -3 -5 -1 -10 4 -10 6 0 10 -3 9 -7 -3 -9 7 -28 65 -128 23 -38 42
-76 43 -84 2 -8 7 -17 11 -20 5 -3 27 -40 50 -81 22 -41 51 -95 65 -120 92
-164 287 -516 317 -571 33 -62 37 -66 58 -56 27 12 27 9 7 72 -8 28 -17 57
-19 65 -6 21 -31 109 -44 148 -5 17 -7 32 -3 32 3 0 1 5 -6 12 -7 7 -12 22
-12 33 0 12 -3 25 -7 29 -5 4 -8 11 -8 14 -1 9 -25 103 -32 122 -4 8 -7 20 -8
25 -2 6 -17 61 -35 122 -17 62 -33 119 -34 125 -2 7 -5 20 -8 28 -14 39 -31
106 -29 114 1 4 -4 14 -10 22 -6 8 -9 14 -6 14 4 0 -1 19 -9 42 -11 32 -12 43
-2 49 7 4 16 5 22 2 5 -3 6 -1 2 5 -3 6 -16 9 -28 7 -11 -3 -18 -2 -14 2 3 3
1 12 -5 19 -6 8 -9 21 -5 29 3 8 1 15 -5 15 -6 0 -9 7 -5 15 3 8 2 15 -3 15
-8 0 -15 23 -28 98 -3 17 -10 32 -15 32 -6 0 -8 9 -5 20 3 11 1 20 -5 20 -5 0
-8 6 -6 12 3 7 -1 23 -8 36 -7 14 -10 31 -7 38 3 8 0 14 -7 14 -8 0 -11 11 -8
29 2 17 1 28 -3 25 -10 -6 -22 33 -14 46 3 5 1 10 -5 10 -7 0 -10 6 -7 14 3 8
2 16 -3 18 -6 2 -11 15 -12 31 -1 15 -6 27 -10 27 -4 0 -5 9 -3 20 2 11 -1 20
-7 20 -6 0 -8 3 -5 6 3 4 2 14 -3 24 -5 9 -11 28 -14 41 -2 13 -7 32 -11 42
-6 15 -3 17 20 13 15 -3 33 -10 41 -17 8 -6 14 -9 14 -6 0 3 16 -1 35 -9 19
-8 35 -11 35 -8 0 3 10 0 23 -8 12 -7 56 -25 97 -38 41 -14 78 -29 82 -35 4
-5 8 -7 8 -3 0 4 37 -7 83 -23 45 -17 102 -37 127 -45 25 -8 54 -19 65 -23 11
-5 34 -14 50 -19 17 -6 39 -14 50 -18 11 -4 22 -8 25 -8 3 -1 10 -5 17 -9 6
-4 23 -8 37 -9 14 -1 26 -6 26 -10 0 -4 16 -10 35 -14 19 -3 35 -11 35 -17 0
-5 9 -2 20 8 11 10 20 21 20 26 0 7 -47 53 -115 114 -32 30 -194 178 -284 262
-71 65 -109 100 -211 193 -45 41 -105 97 -133 123 -28 26 -79 73 -114 105
l-64 57 28 7 c15 4 48 10 73 12 25 3 45 6 45 7 0 1 9 3 20 4 11 2 40 6 65 10
25 4 56 9 70 10 14 2 25 4 25 5 0 2 34 8 89 15 27 4 58 9 70 11 12 3 39 7 61
10 22 3 54 9 70 13 17 4 40 6 53 5 12 -2 22 0 22 5 0 5 8 8 17 7 9 -2 43 3 75
9 42 9 58 9 62 1 3 -7 5 -7 5 2 1 6 12 12 25 12 14 0 36 4 50 10 19 7 26 6 26
-3 0 -7 3 -8 8 -2 4 6 18 11 32 13 14 1 45 7 70 12 49 10 93 18 155 26 22 3
54 9 72 14 22 5 33 5 37 -3 3 -9 5 -8 5 1 1 6 12 12 25 12 21 0 24 5 23 27 -1
16 -9 27 -20 30 -27 5 -52 11 -54 13 -4 3 -3 3 -85 20 -37 7 -65 16 -64 19 2
3 -14 7 -37 8 -22 1 -43 5 -46 10 -3 4 -19 9 -36 10 -52 4 -76 13 -69 26 5 9
4 9 -5 1 -9 -8 -26 -7 -64 3 -56 15 -86 21 -132 30 -16 3 -37 9 -46 14 -9 4
-19 6 -22 2 -4 -3 -13 -1 -20 5 -8 7 -17 9 -20 5 -4 -3 -14 0 -24 8 -15 12
-16 12 -8 -1 7 -13 6 -13 -7 -2 -9 7 -20 12 -24 11 -5 -1 -11 0 -14 1 -3 1
-13 3 -22 6 -10 2 -26 6 -35 8 -10 3 -22 5 -27 5 -9 1 5 14 61 58 15 12 40 32
55 45 15 13 40 33 55 45 15 12 37 30 48 40 11 10 37 30 57 46 21 15 52 41 70
58 l33 30 -80 -5 c-44 -3 -134 -8 -200 -12 -209 -10 -430 -23 -528 -29 -54 -4
-66 -2 -60 9 9 14 70 89 116 140 16 17 36 43 45 59 9 15 22 27 29 27 7 0 13 5
13 11 0 17 47 69 55 61 5 -4 5 -2 2 4 -3 6 8 26 26 45 18 19 45 51 61 71 15
21 33 35 39 31 6 -3 7 -1 3 5 -6 10 11 33 72 99 12 13 22 28 22 33 0 4 14 20
30 33 17 14 30 30 30 34 0 5 15 24 33 43 18 19 48 55 67 80 19 24 42 52 50 61
54 60 69 79 62 79 -4 0 -2 4 4 8 14 9 176 201 197 233 15 23 15 25 -3 37 -20
12 -32 4 -240 -153 -40 -30 -276 -203 -333 -243 -21 -15 -46 -34 -57 -43 -20
-17 -37 -29 -120 -88 -30 -22 -64 -47 -75 -55 -11 -9 -33 -26 -50 -38 -16 -12
-33 -27 -37 -33 -4 -5 -8 -7 -8 -3 0 7 -25 -11 -55 -39 -8 -7 -18 -13 -24 -13
-5 0 -14 -6 -18 -13 -4 -7 -34 -30 -65 -51 -32 -22 -58 -43 -58 -46 0 -4 -8
-10 -17 -13 -10 -3 -39 -22 -65 -42 l-47 -36 3 28 c2 15 5 28 6 28 2 0 8 29
15 70 2 17 7 41 10 55 3 14 7 39 9 55 5 35 32 181 46 245 5 25 12 61 14 80 3
19 8 46 11 60 2 13 7 42 11 65 7 48 12 70 14 70 1 0 3 11 4 25 2 14 6 37 9 51
5 21 2 28 -15 36 -20 9 -28 2 -77 -61 -31 -39 -59 -72 -63 -74 -4 -2 -8 -10
-8 -17 0 -7 -4 -15 -8 -17 -4 -1 -38 -42 -74 -90 -36 -48 -71 -93 -77 -100
-31 -36 -52 -63 -107 -137 -32 -44 -62 -81 -65 -81 -8 0 -45 82 -41 92 1 5 -2
8 -8 8 -5 0 -10 4 -10 10 0 9 -13 38 -90 207 -21 45 -35 84 -32 87 3 3 0 6 -6
6 -7 0 -12 9 -12 20 0 11 -4 20 -10 20 -5 0 -10 5 -10 11 0 6 -12 34 -26 63
-14 28 -26 53 -26 56 -2 26 -20 50 -37 47 -11 -2 -23 -5 -25 -8 -5 -5 -19
-199 -27 -384 -1 -33 -7 -63 -13 -67 -8 -6 -8 -8 0 -8 7 0 10 -14 7 -36 -5
-49 -11 -148 -12 -201 -1 -24 -4 -43 -8 -43 -5 0 -33 38 -63 85 -30 47 -58 85
-62 85 -5 0 -8 4 -8 10 0 5 -22 41 -50 80 -27 39 -50 74 -50 78 0 5 -9 17 -20
27 -11 10 -20 24 -20 32 0 7 -4 13 -10 13 -5 0 -10 6 -10 14 0 8 -4 16 -8 18
-11 4 -222 317 -222 329 0 5 -4 9 -10 9 -5 0 -17 14 -26 32 -9 17 -25 40 -35
51 -10 12 -19 27 -19 34 0 8 -7 16 -15 19 -8 4 -15 10 -15 14 0 11 -172 264
-182 268 -4 2 -8 8 -8 14 0 8 -17 35 -72 113 -4 5 -18 23 -31 39 -21 26 -24
27 -39 13z m430 -2671 c-7 -7 -33 -37 -58 -66 -52 -63 -66 -76 -111 -110 -82
-62 -234 -185 -237 -192 -6 -12 -17 -9 -40 10 -11 9 -30 25 -42 35 -11 10 -26
15 -32 11 -6 -4 -8 -3 -4 4 3 6 -3 13 -14 17 -11 3 -20 10 -20 15 0 4 -8 10
-17 14 -10 3 -34 15 -53 26 -60 36 -75 44 -80 45 -3 1 -23 9 -44 18 -22 10
-46 15 -53 12 -8 -2 -12 -1 -9 4 3 5 -8 11 -24 15 -60 11 -31 27 73 41 12 1
41 5 64 9 23 4 57 9 75 12 18 3 44 7 58 9 14 2 47 7 73 10 27 3 65 9 86 14 20
4 44 7 54 5 9 -1 17 1 17 5 0 4 15 6 33 6 17 -1 37 1 42 4 6 3 19 6 30 7 11 2
40 5 65 9 25 4 55 7 68 8 12 1 22 3 22 7 0 3 20 6 45 7 37 2 43 0 33 -11z
m-778 -190 c0 -2 -8 -10 -17 -17 -16 -13 -17 -12 -4 4 13 16 21 21 21 13z
m945 -396 c-3 -5 -8 -19 -10 -30 -2 -12 -13 -54 -24 -94 -11 -40 -22 -83 -25
-97 -17 -80 -60 -218 -67 -213 -5 3 -9 13 -9 22 0 9 -23 64 -50 121 -45 92
-61 135 -45 119 3 -3 20 8 36 23 17 16 36 26 42 22 6 -3 7 -1 3 6 -4 6 0 14 9
18 10 3 28 17 41 30 14 14 29 21 37 17 6 -4 9 -4 5 1 -4 4 7 21 25 36 34 31
42 35 32 19z m229 -649 c0 -252 -2 -457 -6 -455 -4 3 -23 37 -43 77 -44 86
-57 109 -149 252 -39 61 -74 112 -78 113 -5 2 -8 10 -8 17 0 7 -5 15 -12 17
-10 4 11 48 32 68 13 13 70 102 70 109 0 5 3 11 8 13 11 5 82 107 82 118 0 6
3 10 8 10 4 0 25 29 47 64 22 35 42 62 44 60 2 -2 4 -210 5 -463z m-419 239
c-3 -5 -12 -10 -18 -10 -7 0 -6 4 3 10 19 12 23 12 15 0z"/>
<path d="M8580 6206 c0 -2 8 -10 18 -17 15 -13 16 -12 3 4 -13 16 -21 21 -21
13z"/>
<path d="M8674 5905 c0 -13 3 -22 7 -19 8 4 6 30 -2 38 -3 3 -5 -5 -5 -19z"/>
</g>
</svg>
